HIERARCHY
ROOT Hips
{
	OFFSET -0.179506 -22.333345 2.821913
	CHANNELS 6 Xposition Yposition Zposition Zrotation Yrotation Xrotation 
	JOINT LeftUpLeg
	{
		OFFSET 6.951974 -9.140623 -0.681533
		CHANNELS 3 Zrotation Yrotation Xrotation
		JOINT LeftLeg
		{
			OFFSET 3.427654 -37.519855 -0.449580
			CHANNELS 3 Zrotation Yrotation Xrotation
			JOINT LeftFoot
			{
				OFFSET -1.359570 -39.796059 -4.369333
				CHANNELS 3 Zrotation Yrotation Xrotation
				JOINT LeftToe
				{
					OFFSET 2.635814 -5.579078 11.928840
					CHANNELS 3 Zrotation Yrotation Xrotation
					End Site
					{
						OFFSET 0.000000 0.000000 0.000000
					}
				}
			}
		}
	}
	JOINT RightUpLeg
	{
		OFFSET -6.767048 -9.052170 -0.431982
		CHANNELS 3 Zrotation Yrotation Xrotation
		JOINT RightLeg
		{
			OFFSET -3.829005 -38.256897 -0.885003
			CHANNELS 3 Zrotation Yrotation Xrotation
			JOINT RightFoot
			{
				OFFSET 1.577377 -39.841461 -4.231180
				CHANNELS 3 Zrotation Yrotation Xrotation
				JOINT RightToe
				{
					OFFSET -2.537174 -4.814398 12.334795
					CHANNELS 3 Zrotation Yrotation Xrotation
					End Site
					{
						OFFSET 0.000000 0.000000 0.000000
					}
				}
			}
		}
	}
	JOINT Spine
	{
		OFFSET -0.253288 10.896323 -2.669631
		CHANNELS 3 Zrotation Yrotation Xrotation
		JOINT Spine1
		{
			OFFSET 0.548704 13.518043 0.109247
			CHANNELS 3 Zrotation Yrotation Xrotation
			JOINT Spine2
			{
				OFFSET 0.145701 5.292222 2.542457
				CHANNELS 3 Zrotation Yrotation Xrotation
				JOINT Neck
				{
					OFFSET -0.277840 21.387037 -4.285703
					CHANNELS 3 Zrotation Yrotation Xrotation
					JOINT Head
					{
						OFFSET 0.515184 6.496960 5.134897
						CHANNELS 3 Zrotation Yrotation Xrotation
						End Site
						{
							OFFSET 0.000000 0.000000 0.000000
						}
					}
				}
				JOINT LeftShoulder
				{
					OFFSET 7.884473 12.174932 -3.408961
					CHANNELS 3 Zrotation Yrotation Xrotation
					JOINT LeftArm
					{
						OFFSET 9.097692 3.046888 -0.886815
						CHANNELS 3 Zrotation Yrotation Xrotation
						JOINT LeftForeArm
						{
							OFFSET 25.961220 -1.277207 -2.745643
							CHANNELS 3 Zrotation Yrotation Xrotation
							JOINT LeftHand
							{
								OFFSET 24.923361 0.898606 -0.117091
								CHANNELS 3 Zrotation Yrotation Xrotation
								End Site
								{
									OFFSET 0.000000 0.000000 0.000000
								}
							}
						}
					}
				}
				JOINT RightShoulder
				{
					OFFSET -8.175920 11.883285 -3.861528
					CHANNELS 3 Zrotation Yrotation Xrotation
					JOINT RightArm
					{
						OFFSET -9.601238 3.255117 -0.914307
						CHANNELS 3 Zrotation Yrotation Xrotation
						JOINT RightForeArm
						{
							OFFSET -25.374195 -1.332924 -2.140099
							CHANNELS 3 Zrotation Yrotation Xrotation
							JOINT RightHand
							{
								OFFSET -25.529810 0.777228 -0.555919
								CHANNELS 3 Zrotation Yrotation Xrotation
								End Site
								{
									OFFSET 0.000000 0.000000 0.000000
								}
							}
						}
					}
				}
			}
		}
	}
}
MOTION
Frames: 17
Frame Time: 0.033333
345.134552 317.956329 89.641258 -52.003135 -0.818598 87.112012 -4.340187 -2.144011 -8.977040 -4.231169 4.759953 11.124074 0.467696 9.705402 -2.931791 nan nan nan -1.830193 -3.323753 4.997666 1.196511 -1.015113 41.461852 9.579778 -2.426142 10.730293 nan nan nan -2.238230 4.773575 8.595300 0.076362 -1.246944 -0.107180 -1.098741 1.372354 0.155844 1.895317 -1.884225 -2.616418 5.131237 -1.941283 -5.174606 -21.358123 5.860855 1.069415 -53.207195 -1.662112 10.106167 3.291423 -26.771520 -0.458693 3.784312 -12.792351 -22.092490 20.135351 -2.753612 0.123929 59.559650 3.135727 16.735770 -3.494490 34.363187 0.197223 5.328108 8.029626 -21.238880 
344.680328 317.539917 89.796280 -51.927102 -0.451585 87.087000 -4.129798 -2.137673 -8.064433 -4.187926 4.175686 10.339435 0.535657 10.063430 -3.078815 nan nan nan -1.332030 -2.968774 3.589101 1.436580 -0.844227 42.850119 9.124068 -2.062713 9.508913 nan nan nan -2.092535 4.394906 8.716319 0.100098 -1.060388 -0.069643 -0.931675 1.384214 0.202327 1.820292 -1.983966 -2.651971 5.453743 -1.870136 -5.295083 -21.332299 5.540351 0.542195 -53.598384 -3.121793 9.463792 4.269131 -26.288925 -5.091847 2.271662 -11.493226 -26.685770 19.937564 -2.495744 0.210874 59.835095 3.016716 16.893233 -3.994041 34.012580 -0.785750 7.308089 7.586020 -22.511724 
344.130066 316.953064 89.895546 -51.472365 -0.143104 86.871167 -4.148858 -1.812045 -6.821250 -4.045297 3.374548 9.478256 0.264077 10.219309 -3.220171 nan nan nan -1.051507 -2.750759 2.861624 1.705722 -0.669408 43.569372 9.026781 -1.184753 8.203742 nan nan nan -1.798606 3.868053 9.374734 0.084664 -1.084314 -0.121332 -0.792930 1.211678 -0.111401 1.745819 -1.576999 -3.202050 5.280413 -1.908190 -5.369284 -21.678889 5.801361 -0.261911 -53.314699 -3.793239 8.775098 3.967368 -26.351553 -5.370040 -3.796329 -12.033533 -27.115271 19.735552 -3.255921 -0.441343 59.905668 2.336922 16.568458 -3.809447 34.460850 0.277108 12.461914 7.645936 -22.415708 
343.634705 316.371155 90.023506 -51.108956 0.127042 86.526579 -4.291450 -1.608244 -5.344799 -3.695542 2.362764 8.417447 0.120494 10.355697 -3.263147 nan nan nan -0.882424 -2.445795 2.111445 2.129447 -0.370226 44.387703 9.323010 -0.332010 7.409460 nan nan nan -1.481644 3.384856 9.664328 0.102052 -1.148718 0.058872 -0.773024 1.074172 -0.044767 1.784101 -1.217608 -3.532629 5.120748 -1.967830 -5.431744 -21.603992 5.692615 -0.735075 -53.510212 -4.417720 8.852627 4.000509 -26.659684 -5.502731 -5.196664 -12.404837 -27.177261 19.441150 -3.594154 -0.757243 60.060162 2.270946 16.362010 -3.599485 34.327063 0.602422 13.766011 7.677827 -22.182061 
343.155609 315.849213 90.192085 -50.838185 0.468567 86.239367 -4.230766 -1.272922 -4.038797 -3.419539 1.547071 7.523664 -0.048808 10.376094 -3.284977 nan nan nan -0.629160 -2.233729 1.281913 2.497850 -0.054205 45.052074 9.291463 0.324495 6.626222 nan nan nan -1.227862 2.969574 9.633347 0.232528 -1.220821 0.443180 -0.730436 0.935134 0.085726 1.888914 -1.236611 -3.240899 5.052932 -2.122090 -5.539425 -21.481823 5.285553 -0.846779 -53.755742 -4.846019 9.216173 4.281420 -27.500526 -5.697495 -3.483397 -12.132665 -27.142079 19.293639 -3.477084 -0.654754 60.006921 2.303470 16.101866 -3.741350 34.317490 0.280171 12.523974 7.782335 -22.040650 
342.676178 315.343689 90.374329 -50.562163 0.823163 85.939803 -4.178339 -0.988555 -2.723035 -2.976720 0.685774 6.600477 -0.323027 10.408539 -3.132904 nan nan nan -0.239347 -2.074319 0.492027 2.546709 0.182564 45.311946 9.201113 0.588668 5.682307 nan nan nan -1.014078 2.724626 9.719500 0.373279 -1.359352 0.662571 -0.664995 0.860394 0.306434 1.767493 -0.804888 -2.798549 5.189340 -2.047939 -6.393237 -21.021931 4.657762 -0.864989 -54.304476 -5.158060 9.698354 4.137163 -28.462718 -5.280839 2.107913 -11.094019 -26.937846 18.895748 -3.546936 -0.453560 60.370021 1.717943 15.832416 -5.443993 35.431412 -0.478146 5.198136 6.770254 -19.998257 
342.226318 314.900146 90.540794 -50.140132 1.169846 85.952617 -4.014249 -0.837471 -1.975382 -2.731130 0.057051 6.038723 -0.471136 10.397472 -3.288789 nan nan nan 0.226951 -1.727268 -0.728102 2.543860 0.128698 45.808221 8.925542 0.670169 4.443053 nan nan nan -0.994401 2.349166 9.676970 0.634376 -1.454327 0.602891 -0.512297 0.672759 0.651774 1.808869 -0.493489 -3.142802 5.119938 -2.088066 -6.258083 -20.511849 4.434904 -0.880322 -55.056244 -5.804964 10.182557 4.282859 -28.983257 -5.358299 4.492146 -10.658505 -27.298845 18.784815 -3.545758 -0.591845 60.750691 2.003026 15.877305 -6.005739 34.989890 -0.955031 3.798970 7.482422 -19.958448 
341.805908 314.497955 90.673820 -49.846743 1.441279 85.994891 -3.927447 -0.628338 -1.310214 -2.521542 -0.398981 5.467308 -0.660964 10.626065 -3.425010 nan nan nan 0.640118 -1.226341 -2.180362 2.747411 0.286217 46.544624 8.726955 0.832350 3.127198 nan nan nan -0.889990 1.837322 9.819061 0.768167 -1.469850 0.289378 -0.389295 0.468134 0.960096 1.828408 -0.327815 -3.405090 5.053685 -2.025001 -5.971386 -20.453074 4.148991 -1.053972 -55.278533 -6.303723 10.487876 3.772420 -29.088616 -6.250463 6.699703 -10.795230 -28.193767 18.735008 -3.424157 -0.644454 60.210536 2.044496 16.090088 -5.113697 35.380487 -0.687765 2.651887 8.181586 -20.153271 
341.373932 314.124542 90.821648 -49.491753 1.708683 85.899068 -3.833337 -0.342733 -0.449681 -2.216797 -1.011668 4.855018 -1.033811 10.730767 -3.652011 nan nan nan 1.022208 -0.828066 -3.422413 2.458749 0.063239 46.563512 8.880594 0.732056 2.589368 nan nan nan -0.804793 1.298845 10.327242 0.831634 -1.539769 -0.384498 -0.298316 0.283499 1.323691 1.859305 -0.014590 -3.690203 5.088960 -1.915783 -5.495344 -20.588605 3.880338 -1.323418 -55.188253 -6.925123 10.534450 2.706114 -28.454384 -6.955478 10.129597 -11.852529 -28.841958 18.805927 -3.424072 -0.684430 59.860915 1.804871 16.266751 -4.481626 35.490594 -0.927440 0.339828 8.319894 -20.934376 
340.977966 313.765228 90.945496 -49.233171 1.961776 85.829747 -3.731646 -0.183840 0.371226 -1.852781 -1.496963 4.232245 -1.408374 10.731188 -3.932175 nan nan nan 1.318421 -0.286203 -4.614168 2.203375 -0.210908 46.604004 9.169425 0.564689 1.823919 nan nan nan -0.814982 0.865817 10.972735 0.964236 -1.531102 -0.863302 -0.168637 0.144516 1.439009 2.046163 0.292353 -4.070217 5.074655 -2.035191 -5.175946 -20.531248 3.773114 -1.515028 -55.229073 -7.611640 10.898774 1.737824 -28.395854 -7.124806 12.702173 -13.403765 -29.843344 18.814718 -3.711809 -0.882070 59.710836 1.617933 16.509582 -4.153864 35.555325 -1.287222 -1.618993 8.053131 -21.561424 
340.587067 313.420471 91.063736 -48.993386 2.281170 85.886069 -3.512193 -0.018752 0.991340 -1.488292 -1.881402 3.678824 -1.775903 10.680265 -4.135556 nan nan nan 1.729795 0.177073 -5.951474 1.716600 -0.621498 46.530711 8.924301 0.297152 0.963269 nan nan nan -0.855314 0.501967 11.546739 1.158467 -1.490963 -1.278455 0.053660 0.001684 1.457570 2.210439 0.604828 -4.544153 5.025442 -2.065047 -4.902296 -20.433359 3.638169 -1.653667 -55.367728 -8.357124 11.171363 1.080356 -28.179372 -7.112387 14.092010 -14.866964 -30.421608 18.875645 -4.027133 -1.095169 59.529620 1.499582 16.628576 -4.097208 35.749791 -1.437015 -2.369703 8.334185 -21.802366 
340.380707 313.161102 91.148010 -48.988334 2.410640 86.390758 -3.592467 -0.013922 0.850571 -1.096052 -2.026351 3.355875 -1.905509 10.641141 -4.275443 nan nan nan 1.870950 0.827232 -8.231706 1.183681 -0.992937 46.698507 8.830300 0.148264 0.449238 nan nan nan -0.922488 0.123793 12.101064 1.225738 -1.331396 -2.116141 0.199139 -0.080972 1.422011 2.332182 0.851888 -4.907073 5.082831 -2.036747 -4.539130 -20.183413 3.518077 -1.747147 -55.694680 -9.119780 11.552001 0.531582 -27.794350 -7.114624 15.666840 -16.113784 -30.854363 18.772672 -4.272890 -1.144066 59.523405 1.596591 16.826443 -4.014828 35.662152 -1.475133 -3.216579 8.666641 -22.139434 
340.036316 312.821991 91.202660 -48.925225 2.564431 86.667491 -3.615817 -0.005037 1.155073 -0.769619 -2.287969 2.874412 -1.948282 10.560568 -4.175322 nan nan nan 2.066663 1.456482 -9.932433 0.845373 -1.071917 46.748589 8.617374 -0.156715 -0.408092 nan nan nan -1.031162 -0.210479 12.368924 1.341582 -1.252101 -2.651122 0.322728 -0.201877 1.608809 2.511662 1.173435 -5.326821 5.155544 -2.099418 -4.040011 -19.874483 3.381826 -1.818341 -56.071637 -9.969243 11.897590 -0.044420 -27.367233 -7.301180 17.694341 -17.290626 -31.589496 18.673525 -4.464753 -1.227530 59.567323 1.673826 17.098592 -3.949381 35.550096 -1.631203 -4.377934 9.045667 -22.586964 
339.606689 312.442657 91.256874 -48.685786 2.756208 86.730766 -3.536085 0.097857 1.834325 -0.464088 -2.677153 2.252371 -2.062463 10.343076 -4.123145 nan nan nan 2.303590 1.971845 -11.206741 0.516412 -1.323217 46.349635 8.481988 -0.653040 -0.928040 nan nan nan -1.139767 -0.569082 12.753842 1.493742 -1.260422 -3.090501 0.475557 -0.398543 1.773660 2.688380 1.335090 -5.804318 5.163983 -2.242576 -3.482103 -19.628934 3.260101 -1.827466 -56.279350 -10.846380 12.151738 -0.813612 -26.944235 -7.519155 19.744591 -18.585877 -32.488221 18.574908 -4.641876 -1.377966 59.604385 1.596071 17.404559 -3.901500 35.493181 -1.929983 -5.671147 9.662359 -23.307537 
339.125092 312.028107 91.315140 -48.202726 3.063351 86.590485 -3.249157 0.312318 2.740928 -0.197246 -3.117367 1.688972 -2.413279 10.112804 -4.486191 nan nan nan 2.639912 2.338580 -11.945062 0.121141 -1.717760 45.298724 8.373169 -1.118043 -1.323229 nan nan nan -1.192142 -0.921539 13.255452 1.694795 -1.359137 -3.358986 0.681238 -0.629437 1.948335 2.922415 1.546330 -6.354316 5.140226 -2.277578 -3.059482 -19.407681 3.038923 -1.782620 -56.484426 -11.718192 12.360525 -1.434446 -26.607439 -7.623068 21.306589 -19.922687 -33.360822 18.510266 -4.887492 -1.644093 59.599933 1.514971 17.569129 -3.840114 35.391985 -2.136962 -6.576299 10.452890 -24.047105 
338.610260 311.359894 91.442749 -47.674974 3.515816 86.138366 -2.878272 1.135779 4.320169 0.173162 -4.206594 0.766283 -2.539306 10.087193 -4.526604 nan nan nan 2.896056 2.173509 -11.820318 -0.234519 -1.958227 43.489352 7.820766 -1.282526 -1.187659 nan nan nan -0.522682 -1.481479 12.937565 1.530556 -1.427837 -1.998520 0.644751 -0.782239 1.540993 3.082553 1.466899 -5.487243 5.111177 -1.907847 -4.182332 -19.727240 2.345873 -2.389309 -56.175029 -11.927964 10.420411 5.693183 -31.271403 -6.826236 3.008736 -12.843358 -26.246347 18.026246 -4.506025 -1.940289 61.023738 0.548534 15.746038 -7.270606 35.569238 -1.444970 5.860949 7.811359 -20.355796 
338.141479 310.891449 91.538704 -47.072820 3.745365 86.179277 -2.684573 1.194650 5.079282 0.460382 -4.727755 0.232760 -2.744691 9.922725 -4.603784 nan nan nan 2.979527 2.334844 -12.499225 -0.589933 -2.485815 41.958179 7.815889 -1.790354 -0.958148 nan nan nan -0.537427 -1.845827 12.872955 1.664661 -1.589472 -1.961687 0.827093 -1.058383 1.737448 3.170027 1.529883 -5.420124 5.275743 -1.719835 -4.206692 -19.419865 2.237474 -2.335311 -56.650684 -12.729908 10.530446 5.830390 -31.789579 -6.987612 3.107277 -12.900322 -26.560141 17.734258 -4.713096 -1.976372 61.313609 0.351574 15.851074 -7.613408 35.812169 -1.504157 6.092699 7.802097 -20.493055 
